#!OML:ASF E:\Mandelcareful walks\Project 1\Capture day 1\Session 1\Subject1.ASF
:FULLY-SPECIFIED
:DEGREES
315
root -14.0886 8.15593 0.561301 212.777 82.4124 154.155
lowerback 39.3458 0.404441 -2.67769
upperback 7.49901 -0.146451 -4.21239
thorax -10.8258 0.389657 -3.15008
lowerneck -32.2151 1.90911 -4.45886
upperneck 17.6561 7.34975 -9.48545
head 11.2895 1.77589 -1.45969
rclavicle -1.43125e-014 2.22142e-014
rhumerus 15.1405 -17.345 -45.5784
rradius 46.2805
rwrist -30.7155
rhand -45.6474 -38.9723
rfingers 7.12502
rthumb -18.4065 -68.1214
lclavicle -1.43125e-014 2.22142e-014
lhumerus 64.9648 -2.02144 21.3086
lradius 47.4144
lwrist 22.1745
lhand -52.9429 314.683
lfingers 7.12502
lthumb -25.411 -16.9901
rfemur -29.3323 -24.4286 10.0777
rtibia 77.2359
rfoot -18.2405 -27.9348
rtoes 31.7577
lfemur -67.3963 31.4741 -12.9741
ltibia 115.953
lfoot 13.2439 13.573
ltoes 18.0777
316
root -14.1847 8.17995 0.491781 213.281 82.1545 155.247
lowerback 39.8488 0.42831 -2.61246
upperback 7.21369 -0.159019 -4.33077
thorax -11.3244 0.380455 -3.32383
lowerneck -30.425 1.58696 -4.12451
upperneck 16.8859 6.46522 -9.326
head 10.6654 1.51836 -1.60583
rclavicle 1.66979e-014 4.17199e-014
rhumerus 15.3344 -18.0723 -45.6559
rradius 44.4921
rwrist -29.0465
rhand -45.5232 -39.0739
rfingers 7.12502
rthumb -18.2871 -68.2343
lclavicle 1.66979e-014 4.17199e-014
lhumerus 65.5088 -2.73137 21.1837
lradius 47.4057
lwrist 22.6721
lhand -52.8345 315.105
lfingers 7.12502
lthumb -25.3072 -16.5542
rfemur -29.4537 -24.9475 9.74055
rtibia 77.8765
rfoot -17.5286 -27.8244
rtoes 35.0925
lfemur -67.3452 30.8404 -12.6545
ltibia 116.359
lfoot 13.8109 13.3135
ltoes 17.9411
317
root -14.2876 8.20077 0.428941 214.69 82.0503 157.254
lowerback 40.555 0.363885 -3.13166
upperback 7.47798 -0.416278 -4.46528
thorax -11.2523 0.308651 -3.09803
lowerneck -32.4277 1.67253 -3.39437
upperneck 17.3144 6.40727 -9.14849
head 11.1651 1.47694 -1.6781
rclavicle 4.05521e-014 -1.04113e-014
rhumerus 17.5292 -19.0017 -46.8323
rradius 42.3321
rwrist -27.0823
rhand -45.4877 -39.6014
rfingers 7.12502
rthumb -18.2529 -68.765
lclavicle 4.05521e-014 -1.04113e-014
lhumerus 66.3721 -1.59903 20.3806
lradius 46.8786
lwrist 23.2227
lhand -52.5771 315.926
lfingers 7.12502
lthumb -25.0606 -15.6983
rfemur -29.4095 -25.1952 9.48856
rtibia 78.5085
rfoot -17.2202 -27.2965
rtoes 39.5713
lfemur -67.4113 30.576 -12.2974
ltibia 116.876
lfoot 14.3341 13.0851
ltoes 18.0113
318
root -14.4011 8.21583 0.365565 215.451 81.9993 158.51
lowerback 40.9059 0.715731 -3.37291
upperback 7.47407 -0.0734137 -4.26669
thorax -11.3467 0.46764 -2.91155
lowerneck -32.1741 1.14145 -3.53171
upperneck 17.1688 5.67003 -8.96096
head 11.0276 1.1778 -1.7208
rclavicle 6.83819e-014 8.98507e-014
rhumerus 17.895 -19.3681 -45.8025
rradius 40.8551
rwrist -26.0977
rhand -45.2399 -42.1017
rfingers 7.12502
rthumb -18.0145 -71.2874
lclavicle 6.83819e-014 8.98507e-014
lhumerus 67.917 -2.2044 22.4639
lradius 45.727
lwrist 21.4896
lhand -52.0506 316.619
lfingers 7.12502
lthumb -24.556 -14.9356
rfemur -29.4711 -25.5285 9.10518
rtibia 79.2156
rfoot -17.3275 -26.9299
rtoes 41.1017
lfemur -67.651 30.2971 -12.1826
ltibia 117.485
lfoot 14.6749 12.9796
ltoes 18.5141
319
root -14.5147 8.22776 0.302901 215.383 81.945 158.912
lowerback 41.0995 0.88662 -3.54035
upperback 7.5876 0.0885197 -4.22485
thorax -11.2681 0.550895 -2.85133
lowerneck -32.0224 0.757759 -3.59344
upperneck 16.9643 5.07489 -8.69608
head 10.8896 0.954786 -1.71893
rclavicle -5.28767e-014 -7.45443e-015
rhumerus 18.1566 -19.4563 -44.8561
rradius 39.8643
rwrist -25.3669
rhand -45.019 -43.9906
rfingers 7.12502
rthumb -17.802 -73.1958
lclavicle -5.28767e-014 -7.45443e-015
lhumerus 68.9892 -1.99667 22.7508
lradius 45.2133
lwrist 21.3924
lhand -51.6993 317.158
lfingers 7.12502
lthumb -24.2193 -14.3514
rfemur -29.5696 -25.9975 8.60737
rtibia 79.9828
rfoot -18.2977 -26.4233
rtoes 38.7444
lfemur -67.8439 29.8778 -12.1761
ltibia 118.122
lfoot 14.7457 12.6053
ltoes 18.6026
320
root -14.6203 8.24047 0.240837 215.407 81.7508 159.403
lowerback 41.3306 1.1143 -3.55042
upperback 7.66544 0.382142 -4.10756
thorax -11.2414 0.685082 -2.84974
lowerneck -31.882 0.320097 -3.4675
upperneck 16.8725 4.41006 -8.68614
head 10.8105 0.674511 -1.85351
rclavicle 1.27222e-014 1.2752e-013
rhumerus 17.8742 -19.4391 -43.5689
rradius 39.1779
rwrist -24.9261
rhand -44.6943 -44.685
rfingers 7.12502
rthumb -17.4895 -73.9182
lclavicle 1.27222e-014 1.2752e-013
lhumerus 70.9662 -2.45897 24.3088
lradius 43.7627
lwrist 20.03
lhand -51.5259 317.524
lfingers 7.12502
lthumb -24.0529 -13.9634
rfemur -29.6601 -26.6272 8.26391
rtibia 80.7079
rfoot -17.4737 -26.2501
rtoes 39.0175
lfemur -68.1216 29.3687 -12.1861
ltibia 118.774
lfoot 14.9051 11.9877
ltoes 17.5805
321
root -14.7191 8.25566 0.187861 216.229 81.6822 160.771
lowerback 41.4699 1.38101 -3.70707
upperback 7.87636 0.690746 -3.97285
thorax -11.0306 0.83266 -2.75422
lowerneck -31.5635 -0.0252987 -3.17868
upperneck 16.2924 3.77761 -8.81703
head 10.5272 0.428975 -2.04841
rclavicle -5.24792e-014 8.74653e-015
rhumerus 17.9152 -19.7544 -42.8819
rradius 38.9863
rwrist -24.8165
rhand -43.8347 -45.7489
rfingers 7.12502
rthumb -16.6621 -75.0537
lclavicle -5.24792e-014 8.74653e-015
lhumerus 72.0335 -2.26853 24.8647
lradius 43.2569
lwrist 19.6546
lhand -51.4331 318.421
lfingers 7.12502
lthumb -23.964 -13.0544
rfemur -29.7307 -26.9488 8.01286
rtibia 81.3414
rfoot -16.598 -26.1978
rtoes 39.6504
lfemur -68.2692 29.1838 -12.0881
ltibia 119.369
lfoot 15.1206 11.5099
ltoes 16.6249
322
root -14.8128 8.27115 0.142466 217.128 81.7223 162.274
lowerback 41.7661 1.6346 -4.07137
upperback 7.9185 0.850165 -3.96546
thorax -11.0642 0.918046 -2.63483
lowerneck -30.9681 -0.150812 -2.55921
upperneck 15.462 3.22187 -8.84368
head 10.1081 0.261812 -2.23325
rclavicle -4.13472e-014 -2.3879e-014
rhumerus 17.729 -19.7631 -42.7038
rradius 39.4347
rwrist -25.9632
rhand -43.2537 -45.7444
rfingers 7.12502
rthumb -16.1026 -75.0954
lclavicle -4.13472e-014 -2.3879e-014
lhumerus 73.1752 -2.3675 25.4128
lradius 42.2596
lwrist 18.949
lhand -51.3151 318.857
lfingers 7.12502
lthumb -23.8509 -12.6042
rfemur -29.7465 -27.0353 7.70789
rtibia 81.9589
rfoot -17.0753 -26.3488
rtoes 37.3203
lfemur -68.2145 29.1968 -11.8756
ltibia 119.926
lfoot 15.2025 11.2433
ltoes 16.8462
323
root -14.8988 8.29194 0.0961778 217.969 81.6883 163.708
lowerback 42.1313 1.8462 -4.16186
upperback 7.83659 1.05055 -3.88284
thorax -11.2652 1.00884 -2.59946
lowerneck -30.6367 -0.603239 -3.20325
upperneck 15.4853 2.59271 -7.79314
head 10.001 0.0639354 -1.85509
rclavicle -2.3059e-014 -1.27471e-014
rhumerus 16.9274 -19.1373 -42.0685
rradius 40.2113
rwrist -28.3483
rhand -43.0727 -45.2598
rfingers 7.12502
rthumb -15.9284 -74.6248
lclavicle -2.3059e-014 -1.27471e-014
lhumerus 74.7264 -2.88968 26.7255
lradius 40.7283
lwrist 17.7769
lhand -50.903 319.013
lfingers 7.12502
lthumb -23.4556 -12.3971
rfemur -29.641 -27.2081 7.42831
rtibia 82.4875
rfoot -16.3251 -25.9475
rtoes 40.536
lfemur -68.1151 29.1833 -11.7123
ltibia 120.4
lfoot 15.2853 10.9342
ltoes 17.0471
324
root -15.0157 8.29535 0.0524358 218.746 81.5359 165.03
lowerback 42.3846 1.73194 -4.31462
upperback 7.87001 0.837502 -4.04284
thorax -11.3053 0.930919 -2.60893
lowerneck -30.3775 -0.409285 -2.44854
upperneck 14.9498 2.3982 -7.55458
head 9.75414 0.069248 -1.91175
rclavicle 2.62396e-014 4.68883e-014
rhumerus 16.8166 -18.4448 -42.8046
rradius 40.9442
rwrist -30.1759
rhand -42.7225 -46.0322
rfingers 7.12502
rthumb -15.5911 -75.4238
lclavicle 2.62396e-014 4.68883e-014
lhumerus 74.8038 -2.64818 26.7319
lradius 40.3641
lwrist 17.2234
lhand -50.5954 319.466
lfingers 7.12502
lthumb -23.1605 -11.9062
rfemur -29.7797 -27.5024 7.16419
rtibia 83.2224
rfoot -16.5752 -25.8685
rtoes 40.069
lfemur -68.3542 29.0569 -11.5495
ltibia 121.03
lfoot 15.3793 10.5555
ltoes 17.1212
325
root -15.101 8.31592 0.00474062 218.998 81.321 165.788
lowerback 42.8191 1.708 -4.28664
upperback 7.92511 0.839825 -3.87898
thorax -11.3727 0.938555 -2.45743
lowerneck -30.5691 -0.687436 -2.83004
upperneck 14.5581 2.03469 -6.99011
head 9.61511 -0.0409152 -1.70604
rclavicle 2.94201e-014 4.95222e-014
rhumerus 16.4686 -18.2664 -42.9104
rradius 42.0981
rwrist -31.5983
rhand -42.1937 -47.321
rfingers 7.12502
rthumb -15.0818 -76.7516
lclavicle 2.94201e-014 4.95222e-014
lhumerus 76.1786 -2.82758 28.1705
lradius 38.7369
lwrist 15.6744
lhand -50.6672 320.092
lfingers 7.12502
lthumb -23.2294 -11.2887
rfemur -29.8682 -27.8756 6.91709
rtibia 83.7774
rfoot -16.1448 -25.9368
rtoes 39.7045
lfemur -68.3809 28.647 -11.4509
ltibia 121.374
lfoot 15.5146 10.2275
ltoes 16.8447
326
root -15.1916 8.33061 -0.032601 220.138 81.2264 167.537
lowerback 43.3625 1.58546 -4.31676
upperback 7.99232 0.691211 -3.77846
thorax -11.4574 0.88491 -2.28033
lowerneck -30.9958 -0.862986 -3.60968
upperneck 14.4528 1.92565 -6.05815
head 9.61589 -0.0280903 -1.27119
rclavicle 1.47101e-014 1.63749e-014
rhumerus 16.0787 -18.1535 -44.0957
rradius 43.88
rwrist -32.3137
rhand -41.4038 -48.0024
rfingers 7.12502
rthumb -14.3208 -77.4885
lclavicle 1.47101e-014 1.63749e-014
lhumerus 76.7065 -2.27704 28.4169
lradius 37.8169
lwrist 15.0065
lhand -50.5865 321.426
lfingers 7.12502
lthumb -23.1519 -9.94567
rfemur -29.8966 -27.9718 6.73985
rtibia 84.4081
rfoot -15.6553 -25.8679
rtoes 41.0459
lfemur -68.3294 28.5244 -11.115
ltibia 121.793
lfoot 15.8804 10.0639
ltoes 16.995
327
root -15.2865 8.33911 -0.0647066 221.305 81.1828 169.301
lowerback 43.8845 1.50173 -4.7601
upperback 7.86997 0.35154 -3.92588
thorax -11.7459 0.759833 -2.08008
lowerneck -31.1017 -0.388856 -2.84974
upperneck 14.4526 2.14525 -5.73297
head 9.63093 0.147475 -1.24
rclavicle 8.46823e-014 4.33351e-014
rhumerus 15.0005 -16.3579 -44.9106
rradius 45.8899
rwrist -34.0811
rhand -40.842 -48.3217
rfingers 7.12502
rthumb -13.7794 -77.8454
lclavicle 8.46823e-014 4.33351e-014
lhumerus 76.83 -2.08879 28.6082
lradius 36.9031
lwrist 13.6631
lhand -50.2307 322.373
lfingers 7.12502
lthumb -22.8105 -8.95563
rfemur -29.7505 -27.9444 6.48939
rtibia 84.9921
rfoot -17.4346 -25.9563
rtoes 37.3124
lfemur -68.3138 28.548 -10.7699
ltibia 122.277
lfoot 16.273 10.1207
ltoes 18.03
